<svg width="55" height="55" viewBox="0 0 55 55" fill="none" xmlns="http://www.w3.org/2000/svg">
<path d="M42.9688 9.02344H34.375C33.5773 9.02344 32.8122 9.34033 32.2482 9.90441C31.6841 10.4685 31.3672 11.2335 31.3672 12.0312V30.9375C31.3672 31.9631 30.9598 32.9468 30.2345 33.672C29.5093 34.3973 28.5256 34.8047 27.5 34.8047C26.4744 34.8047 25.4907 34.3973 24.7655 33.672C24.0402 32.9468 23.6328 31.9631 23.6328 30.9375V12.0312C23.6328 11.2335 23.3159 10.4685 22.7518 9.90441C22.1878 9.34033 21.4227 9.02344 20.625 9.02344H12.0312C11.2335 9.02344 10.4685 9.34033 9.90441 9.90441C9.34033 10.4685 9.02344 11.2335 9.02344 12.0312V30.9375C9.02344 35.8378 10.9701 40.5374 14.4351 44.0024C17.9001 47.4674 22.5997 49.4141 27.5 49.4141H27.6396C37.7502 49.3389 45.9766 40.9535 45.9766 30.7227V12.0312C45.9766 11.2335 45.6597 10.4685 45.0956 9.90441C44.5315 9.34033 43.7665 9.02344 42.9688 9.02344ZM34.375 11.6016H42.9688C43.0827 11.6016 43.192 11.6468 43.2726 11.7274C43.3532 11.808 43.3984 11.9173 43.3984 12.0312V19.3359H33.9453V12.0312C33.9453 11.9173 33.9906 11.808 34.0712 11.7274C34.1517 11.6468 34.261 11.6016 34.375 11.6016ZM12.0312 11.6016H20.625C20.739 11.6016 20.8483 11.6468 20.9288 11.7274C21.0094 11.808 21.0547 11.9173 21.0547 12.0312V19.3359H11.6016V12.0312C11.6016 11.9173 11.6468 11.808 11.7274 11.7274C11.808 11.6468 11.9173 11.6016 12.0312 11.6016ZM27.6203 46.8359H27.5C23.2835 46.8359 19.2396 45.1609 16.2581 42.1794C13.2766 39.1979 11.6016 35.154 11.6016 30.9375V21.9141H21.0547V30.9375C21.0547 32.6469 21.7337 34.2863 22.9425 35.495C24.1512 36.7038 25.7906 37.3828 27.5 37.3828C29.2094 37.3828 30.8488 36.7038 32.0575 35.495C33.2663 34.2863 33.9453 32.6469 33.9453 30.9375V21.9141H43.3984V30.7227C43.3984 39.542 36.3215 46.7715 27.6203 46.8359Z" fill="#222222"/>
</svg>
