<svg width="353" height="87" viewBox="0 0 353 87" fill="none" xmlns="http://www.w3.org/2000/svg">
<path d="M42.9688 31.0234H34.375C33.5773 31.0234 32.8122 31.3403 32.2482 31.9044C31.6841 32.4685 31.3672 33.2335 31.3672 34.0312V52.9375C31.3672 53.9631 30.9598 54.9468 30.2345 55.672C29.5093 56.3973 28.5256 56.8047 27.5 56.8047C26.4744 56.8047 25.4907 56.3973 24.7655 55.672C24.0402 54.9468 23.6328 53.9631 23.6328 52.9375V34.0312C23.6328 33.2335 23.3159 32.4685 22.7518 31.9044C22.1878 31.3403 21.4227 31.0234 20.625 31.0234H12.0312C11.2335 31.0234 10.4685 31.3403 9.90441 31.9044C9.34033 32.4685 9.02344 33.2335 9.02344 34.0312V52.9375C9.02344 57.8378 10.9701 62.5374 14.4351 66.0024C17.9001 69.4674 22.5997 71.4141 27.5 71.4141H27.6396C37.7502 71.3389 45.9766 62.9535 45.9766 52.7227V34.0312C45.9766 33.2335 45.6597 32.4685 45.0956 31.9044C44.5315 31.3403 43.7665 31.0234 42.9688 31.0234ZM34.375 33.6016H42.9688C43.0827 33.6016 43.192 33.6468 43.2726 33.7274C43.3532 33.808 43.3984 33.9173 43.3984 34.0312V41.3359H33.9453V34.0312C33.9453 33.9173 33.9906 33.808 34.0712 33.7274C34.1517 33.6468 34.261 33.6016 34.375 33.6016ZM12.0312 33.6016H20.625C20.739 33.6016 20.8483 33.6468 20.9288 33.7274C21.0094 33.808 21.0547 33.9173 21.0547 34.0312V41.3359H11.6016V34.0312C11.6016 33.9173 11.6468 33.808 11.7274 33.7274C11.808 33.6468 11.9173 33.6016 12.0312 33.6016ZM27.6203 68.8359H27.5C23.2835 68.8359 19.2396 67.1609 16.2581 64.1794C13.2766 61.1979 11.6016 57.154 11.6016 52.9375V43.9141H21.0547V52.9375C21.0547 54.6469 21.7337 56.2863 22.9425 57.495C24.1512 58.7038 25.7906 59.3828 27.5 59.3828C29.2094 59.3828 30.8488 58.7038 32.0575 57.495C33.2663 56.2863 33.9453 54.6469 33.9453 52.9375V43.9141H43.3984V52.7227C43.3984 61.542 36.3215 68.7715 27.6203 68.8359Z" fill="#222222"/>
<path d="M74.272 68.64C71.7547 68.64 69.6427 68.064 67.936 66.912C66.272 65.76 65.0133 64.1813 64.16 62.176C63.3493 60.128 62.944 57.8453 62.944 55.328C62.944 51.4453 63.904 48.2453 65.824 45.728C67.744 43.2107 70.5813 41.952 74.336 41.952C76.0853 41.952 77.536 42.2507 78.688 42.848C79.8827 43.4027 80.8427 44.0853 81.568 44.896C82.2933 45.7067 82.8267 46.4533 83.168 47.136C83.5093 47.8187 83.7227 48.2667 83.808 48.48H83.936L84 31.968H88.224V68H84.64L84 62.24H83.872C83.7867 62.4533 83.552 62.9013 83.168 63.584C82.784 64.2667 82.208 64.992 81.44 65.76C80.7147 66.528 79.7547 67.2107 78.56 67.808C77.408 68.3627 75.9787 68.64 74.272 68.64ZM75.296 64.992C77.8133 64.992 79.8613 64.1387 81.44 62.432C83.0613 60.6827 83.872 58.3147 83.872 55.328C83.872 52.384 83.1253 50.0587 81.632 48.352C80.1387 46.6027 78.1333 45.728 75.616 45.728C73.6107 45.728 71.968 46.1973 70.688 47.136C69.408 48.032 68.4693 49.2053 67.872 50.656C67.2747 52.1067 66.976 53.664 66.976 55.328C66.976 56.9493 67.2533 58.5067 67.808 60C68.3627 61.4507 69.2373 62.6453 70.432 63.584C71.6267 64.5227 73.248 64.992 75.296 64.992ZM102.772 68.576C100.382 68.576 98.4195 68 96.8835 66.848C95.3475 65.6533 94.1955 64.0533 93.4275 62.048C92.7022 60.0427 92.3395 57.76 92.3395 55.2C92.3395 51.2747 93.1928 48.0533 94.8995 45.536C96.6488 42.976 99.2728 41.696 102.772 41.696C104.564 41.696 106.057 42.016 107.252 42.656C108.489 43.2533 109.47 44 110.196 44.896C110.964 45.792 111.518 46.6453 111.86 47.456H111.924V41.952H116.148V68H112.628L111.988 62.944H111.86C111.476 63.7973 110.921 64.672 110.196 65.568C109.47 66.4213 108.489 67.1467 107.252 67.744C106.057 68.2987 104.564 68.576 102.772 68.576ZM104.372 64.928C107.017 64.928 108.916 64.0533 110.068 62.304C111.262 60.5547 111.86 58.208 111.86 55.264C111.86 52.1067 111.241 49.696 110.003 48.032C108.809 46.368 106.932 45.536 104.372 45.536C101.556 45.536 99.5288 46.4747 98.2915 48.352C97.0968 50.1867 96.4995 52.4693 96.4995 55.2C96.4995 58.0587 97.1182 60.4053 98.3555 62.24C99.5928 64.032 101.598 64.928 104.372 64.928ZM127.46 68C125.881 68 124.772 67.5733 124.132 66.72C123.535 65.8667 123.236 64.6933 123.236 63.2V45.024H119.14V41.952C120.505 41.952 121.508 41.8453 122.148 41.632C122.831 41.376 123.257 40.7787 123.428 39.84C123.599 38.9013 123.684 37.3653 123.684 35.232H127.204V41.952H133.22V45.024H127.204V64.672H133.284V68H127.46ZM147.772 68.576C145.382 68.576 143.42 68 141.884 66.848C140.348 65.6533 139.196 64.0533 138.428 62.048C137.702 60.0427 137.34 57.76 137.34 55.2C137.34 51.2747 138.193 48.0533 139.9 45.536C141.649 42.976 144.273 41.696 147.772 41.696C149.564 41.696 151.057 42.016 152.252 42.656C153.489 43.2533 154.47 44 155.196 44.896C155.964 45.792 156.518 46.6453 156.86 47.456H156.924V41.952H161.148V68H157.628L156.988 62.944H156.86C156.476 63.7973 155.921 64.672 155.196 65.568C154.47 66.4213 153.489 67.1467 152.252 67.744C151.057 68.2987 149.564 68.576 147.772 68.576ZM149.372 64.928C152.017 64.928 153.916 64.0533 155.068 62.304C156.262 60.5547 156.86 58.208 156.86 55.264C156.86 52.1067 156.241 49.696 155.003 48.032C153.809 46.368 151.932 45.536 149.372 45.536C146.556 45.536 144.529 46.4747 143.292 48.352C142.097 50.1867 141.5 52.4693 141.5 55.2C141.5 58.0587 142.118 60.4053 143.356 62.24C144.593 64.032 146.598 64.928 149.372 64.928ZM181.12 68V41.952H184.64L184.896 48.416H185.024C185.109 48.1173 185.301 47.6267 185.6 46.944C185.898 46.2187 186.368 45.472 187.008 44.704C187.648 43.936 188.48 43.296 189.504 42.784C190.528 42.2293 191.829 41.952 193.408 41.952C195.797 41.952 197.546 42.6133 198.656 43.936C199.808 45.2587 200.576 46.752 200.96 48.416H201.088C201.216 48.1173 201.45 47.6267 201.792 46.944C202.133 46.2187 202.645 45.472 203.328 44.704C204.01 43.936 204.885 43.296 205.952 42.784C207.061 42.2293 208.405 41.952 209.984 41.952C211.648 41.952 213.013 42.2933 214.08 42.976C215.146 43.616 215.957 44.4907 216.512 45.6C217.109 46.6667 217.536 47.7973 217.792 48.992C218.048 50.1867 218.197 51.3387 218.24 52.448C218.282 53.5573 218.304 54.4533 218.304 55.136V68H214.72V55.136C214.72 54.4533 214.677 53.5787 214.592 52.512C214.506 51.4453 214.293 50.4 213.951 49.376C213.61 48.3093 213.013 47.4347 212.16 46.752C211.349 46.0267 210.176 45.664 208.64 45.664C206.933 45.664 205.568 46.1333 204.544 47.072C203.52 48.0107 202.773 49.248 202.304 50.784C201.834 52.2773 201.6 53.8987 201.6 55.648V68H198.016V55.136C198.016 54.4533 197.973 53.5787 197.888 52.512C197.802 51.4453 197.589 50.4 197.248 49.376C196.906 48.3093 196.309 47.4347 195.456 46.752C194.645 46.0267 193.472 45.664 191.936 45.664C190.229 45.664 188.864 46.1333 187.84 47.072C186.816 48.0107 186.069 49.248 185.6 50.784C185.13 52.2773 184.896 53.8987 184.896 55.648V68H181.12ZM232.522 68.576C230.132 68.576 228.17 68 226.634 66.848C225.098 65.6533 223.946 64.0533 223.178 62.048C222.452 60.0427 222.09 57.76 222.09 55.2C222.09 51.2747 222.943 48.0533 224.65 45.536C226.399 42.976 229.023 41.696 232.522 41.696C234.314 41.696 235.807 42.016 237.002 42.656C238.239 43.2533 239.22 44 239.946 44.896C240.714 45.792 241.268 46.6453 241.61 47.456H241.674V41.952H245.898V68H242.378L241.738 62.944H241.61C241.226 63.7973 240.671 64.672 239.946 65.568C239.22 66.4213 238.239 67.1467 237.002 67.744C235.807 68.2987 234.314 68.576 232.522 68.576ZM234.122 64.928C236.767 64.928 238.666 64.0533 239.818 62.304C241.012 60.5547 241.61 58.208 241.61 55.264C241.61 52.1067 240.991 49.696 239.753 48.032C238.559 46.368 236.682 45.536 234.122 45.536C231.306 45.536 229.279 46.4747 228.042 48.352C226.847 50.1867 226.25 52.4693 226.25 55.2C226.25 58.0587 226.868 60.4053 228.106 62.24C229.343 64.032 231.348 64.928 234.122 64.928ZM257.082 78.752V74.848H270.074V62.24H269.946C269.861 62.4533 269.626 62.9013 269.242 63.584C268.901 64.2667 268.346 64.992 267.578 65.76C266.853 66.528 265.893 67.2107 264.698 67.808C263.546 68.3627 262.138 68.64 260.474 68.64C257.957 68.64 255.845 68.064 254.138 66.912C252.474 65.7173 251.215 64.1173 250.362 62.112C249.509 60.1067 249.082 57.8453 249.082 55.328C249.082 51.4027 250.042 48.2027 251.962 45.728C253.925 43.2107 256.783 41.952 260.538 41.952C262.287 41.952 263.738 42.2507 264.89 42.848C266.085 43.4027 267.023 44.0853 267.706 44.896C268.431 45.7067 268.965 46.4533 269.306 47.136C269.647 47.8187 269.861 48.2667 269.946 48.48H270.074V41.952H274.298V72.48C274.298 74.528 273.914 76.0853 273.146 77.152C272.378 78.2187 270.991 78.752 268.986 78.752H257.082ZM261.37 64.992C263.93 64.992 265.999 64.1387 267.578 62.432C269.157 60.6827 269.946 58.3147 269.946 55.328C269.946 52.384 269.199 50.0587 267.706 48.352C266.213 46.6027 264.229 45.728 261.754 45.728C259.706 45.728 258.042 46.1973 256.762 47.136C255.525 48.032 254.607 49.2053 254.01 50.656C253.413 52.1067 253.114 53.664 253.114 55.328C253.114 56.9493 253.37 58.5067 253.882 60C254.437 61.4507 255.311 62.6453 256.506 63.584C257.743 64.5227 259.365 64.992 261.37 64.992ZM279.745 68V41.952H283.265L283.969 48.416H284.097C284.139 48.2027 284.331 47.7547 284.673 47.072C285.014 46.3893 285.526 45.664 286.209 44.896C286.934 44.0853 287.873 43.4027 289.025 42.848C290.177 42.2507 291.649 41.952 293.441 41.952C295.702 41.952 297.473 42.3573 298.753 43.168C300.075 43.9787 301.057 45.0667 301.697 46.432C302.337 47.7547 302.742 49.184 302.913 50.72C303.083 52.256 303.169 53.728 303.169 55.136V68H299.201V55.136C299.201 52.32 298.71 50.0373 297.729 48.288C296.79 46.5387 294.913 45.664 292.097 45.664C290.177 45.664 288.598 46.1333 287.361 47.072C286.166 47.968 285.291 49.184 284.737 50.72C284.225 52.2133 283.969 53.856 283.969 55.648V68H279.745ZM320.147 68.64C317.288 68.64 314.92 68 313.043 66.72C311.208 65.3973 309.843 63.712 308.947 61.664C308.094 59.5733 307.667 57.4187 307.667 55.2C307.667 52.768 308.136 50.5493 309.075 48.544C310.056 46.496 311.464 44.8747 313.299 43.68C315.176 42.4853 317.416 41.888 320.019 41.888C323.347 41.888 326.12 42.976 328.339 45.152C330.558 47.2853 331.752 50.1653 331.923 53.792C331.966 53.9627 331.987 54.2187 331.987 54.56C331.987 54.8587 331.987 55.136 331.987 55.392H311.635C311.635 58.4213 312.36 60.8107 313.811 62.56C315.304 64.2667 317.395 65.12 320.083 65.12C322.088 65.12 323.795 64.608 325.203 63.584C326.654 62.56 327.55 61.1733 327.891 59.424H331.923C331.496 62.0693 330.238 64.2667 328.147 66.016C326.056 67.7653 323.39 68.64 320.147 68.64ZM311.763 53.152H327.763C327.763 52.256 327.507 51.1893 326.995 49.952C326.526 48.7147 325.715 47.648 324.563 46.752C323.454 45.8133 321.918 45.344 319.955 45.344C318.163 45.344 316.691 45.728 315.539 46.496C314.387 47.264 313.512 48.2453 312.915 49.44C312.318 50.6347 311.934 51.872 311.763 53.152ZM343.71 68C342.131 68 341.022 67.5733 340.382 66.72C339.785 65.8667 339.486 64.6933 339.486 63.2V45.024H335.39V41.952C336.755 41.952 337.758 41.8453 338.398 41.632C339.081 41.376 339.507 40.7787 339.678 39.84C339.849 38.9013 339.934 37.3653 339.934 35.232H343.454V41.952H349.47V45.024H343.454V64.672H349.534V68H343.71Z" fill="black"/>
</svg>
